<mxfile host="app.diagrams.net" modified="2023-03-24T09:46:38.908Z" agent="Mozilla/5.0 (Windows NT 10.0; Win64; x64) AppleWebKit/537.36 (KHTML, like Gecko) Chrome/111.0.0.0 Safari/537.36" version="21.1.0" etag="8F0wwVOWent7cno-myr_" type="github">
  <diagram name="第 1 页" id="hIBA-cmM1K6iMVSyhmWA">
    <mxGraphModel>
      <root>
        <mxCell id="0" />
        <mxCell id="1" parent="0" />
      </root>
    </mxGraphModel>
  </diagram>
</mxfile>
